<svg width="67" height="56" fill="none" xmlns="http://www.w3.org/2000/svg">
  <g clip-path="url(#a)" fill="#303030">
    <path d="m38.105 16.87-1.254-1a.93.93 0 0 0-1.34.14L18.16 36.83l.268.31L22.725 33a.671.671 0 0 1-.335-.313.717.717 0 0 1-.066-.464c.031-.158.114-.3.234-.401a.642.642 0 0 1 .425-.152c.14 0 .275.047.387.133a.681.681 0 0 1 .235.347l5.666-5.49a.475.475 0 0 1 .613 0l.287.22a.463.463 0 0 0 .64-.08l7.408-8.68a.865.865 0 0 0 .113-.989.818.818 0 0 0-.227-.261Z"/>
    <path d="M46.258 22.73a37.988 37.988 0 0 1-12.556 6.15A65.38 65.38 0 0 1 20.045 31c.093.71.26 1.408.498 2.08 2.603 2.46 22.203-1.74 26.031-6.6.814-1.01-.316-3.75-.316-3.75ZM22.983 33a.631.631 0 0 1-.361-.115.675.675 0 0 1-.24-.305.709.709 0 0 1 .141-.74.626.626 0 0 1 .71-.147c.118.05.22.137.291.25.072.111.11.242.11.377a.697.697 0 0 1-.188.484.64.64 0 0 1-.463.196ZM4.465 21.29l.154-.69 2.488.59c.205.396.332.831.373 1.28.048.475.019.955-.086 1.42a3.828 3.828 0 0 1-.823 1.74 3.272 3.272 0 0 1-1.474 1 3.348 3.348 0 0 1-1.809.07 3.314 3.314 0 0 1-1.598-.88 3.33 3.33 0 0 1-.91-1.57 3.944 3.944 0 0 1 0-2c.104-.49.288-.957.546-1.38.245-.385.573-.704.957-.93l.345.55c-.33.212-.613.494-.83.828a2.933 2.933 0 0 0-.433 1.112A3.255 3.255 0 0 0 1.393 24c.129.486.384.926.737 1.27.363.367.818.62 1.311.73.48.14.986.14 1.465 0 .458-.158.87-.437 1.196-.81.335-.403.565-.888.67-1.41a3.2 3.2 0 0 0-.115-1.91l-2.192-.58ZM9.882 15l-2.23 3.11.957 1.79-.44.62-3.541-6.75.411-.59 7.207 1.62-.45.62L9.882 15Zm-.632-.16-3.828-.9 1.914 3.59 1.914-2.69ZM9.25 8.55l.574-.45 3.646 5.1 3.006-2.35.363.51-3.57 2.79-4.019-5.6ZM15.28 4.38l.64-.3 2.527 5.78 3.417-1.62.248.58-4.057 1.93-2.776-6.37ZM27.893 6.68l.143.63-4.612 1.13-1.532-6.82 4.48-1.09.133.62-3.828.93.546 2.42 3.368-.83.144.62-3.378.82.574 2.53 3.962-.96ZM34.468 6.93l-1.599-2.2c-.178.01-.357.01-.535 0l-1.8.06.067 2.22h-.708l-.22-7L32.219 0c.72-.07 1.44.133 2.029.57.248.209.448.474.584.776.136.301.204.63.2.964a2.4 2.4 0 0 1-.354 1.4 2.239 2.239 0 0 1-1.11.85l1.675 2.34-.775.03Zm-.67-3.29c.172-.165.305-.368.39-.596.085-.227.118-.471.098-.714a1.671 1.671 0 0 0-.141-.708 1.604 1.604 0 0 0-.424-.572A2.25 2.25 0 0 0 32.22.64L30.4.71l.115 3.5 1.78-.06a2.232 2.232 0 0 0 1.503-.51ZM39.53 5.07l-.344 2.39-.699-.11.354-2.35-1.98-5 .746.12L39.3 4.38 42.17.85l.67.15-3.31 4.07ZM48.995 4.65l.833 1.13-.364.3-.832-1.16-.526 1.31-.403-.18.536-1.31-1.378.19v-.48l1.36-.16-.843-1.13.373-.3.737 1.14.517-1.32.412.18-.489 1.34 1.379-.2v.49l-1.312.16ZM52.192 12.71a2.85 2.85 0 0 1-.411-1.21l.564-.26c.043.396.166.778.364 1.12.214.383.492.722.823 1 .34.341.776.562 1.244.63.169.016.34-.01.496-.079.157-.068.295-.175.404-.311a.937.937 0 0 0 .22-.68 1.897 1.897 0 0 0-.23-.69c-.18-.307-.375-.604-.584-.89a9.127 9.127 0 0 1-.689-1.1 2.068 2.068 0 0 1-.249-.94c0-.37.133-.728.374-1 .208-.264.483-.461.794-.57a1.835 1.835 0 0 1 1.062 0c.447.153.86.398 1.216.72.294.256.555.552.775.88.203.304.355.642.45 1l-.546.3a3.591 3.591 0 0 0-.421-.94 3.54 3.54 0 0 0-.641-.69 2.087 2.087 0 0 0-1.235-.61.994.994 0 0 0-.5.086 1.041 1.041 0 0 0-.4.324.897.897 0 0 0-.22.68c.023.252.102.495.23.71.134.23.326.53.584.89.256.34.487.702.69 1.08.158.286.247.61.258.94 0 .37-.133.728-.374 1-.21.267-.488.466-.804.57-.346.11-.716.11-1.062 0a3.513 3.513 0 0 1-1.225-.72 4.519 4.519 0 0 1-.957-1.24ZM61.82 14.17l-1.35-2 .498-.37 3.11 4.64-.497.37-1.35-2-4.995 3.65-.402-.61 4.986-3.68ZM59.676 22.39c.17-.604.503-1.146.957-1.56a3.345 3.345 0 0 1 1.57-.83 3.321 3.321 0 0 1 1.799.07c.563.195 1.068.54 1.464 1a3.82 3.82 0 0 1 .814 1.74 3.976 3.976 0 0 1 0 1.93 3.499 3.499 0 0 1-2.567 2.42 3.404 3.404 0 0 1-1.807-.08 3.198 3.198 0 0 1-1.464-1 3.83 3.83 0 0 1-.814-1.73 4.016 4.016 0 0 1 .048-1.96Zm1.254 3.18c.32.38.733.66 1.196.81.477.145.98.162 1.466.05a2.921 2.921 0 0 0 1.31-.69c.353-.34.613-.77.755-1.25a3.361 3.361 0 0 0 .038-1.55 3.278 3.278 0 0 0-.66-1.39 2.713 2.713 0 0 0-1.234-.81 2.752 2.752 0 0 0-1.474 0 2.602 2.602 0 0 0-1.302.69 2.81 2.81 0 0 0-.756 1.26 3.131 3.131 0 0 0 0 1.55c.105.496.333.955.66 1.33ZM58.949 34l2.478-1c0-.18.058-.36.106-.55l.469-1.81-2.03-.55.182-.71 6.47 1.81-.65 2.53a3.192 3.192 0 0 1-1.11 1.86c-.263.19-.563.314-.879.363-.315.048-.637.02-.94-.083a2.066 2.066 0 0 1-1.174-.755 2.23 2.23 0 0 1-.463-1.355l-2.641 1 .182-.75Zm3.206.28c.112.212.264.399.447.549.183.15.393.258.617.321a1.653 1.653 0 0 0 1.338-.2c.422-.355.71-.854.813-1.41l.46-1.8-3.245-.91-.459 1.8a2.511 2.511 0 0 0 .029 1.65ZM55.513 40.44l-.488-.39 2.87-3.95 5.341 4.23-2.775 3.83-.488-.39 2.344-3.23-1.914-1.51-2.096 2.89-.478-.38 2.144-2.89-1.981-1.57-2.48 3.36ZM53.273 48.41l-1.368.08v-.48l1.368-.01-.737-1.19.374-.25.727 1.2.593-1.34.412.23-.65 1.26 1.368-.08v.49h-1.388l.737 1.19-.373.25-.728-1.2-.631 1.3-.402-.24.698-1.21ZM40.832 47.61l1.158.67c.194-.39.465-.732.795-1.004.33-.273.711-.469 1.12-.576.38-.124.78-.168 1.176-.13.344.027.675.152.957.36.255.2.443.48.536.8.116.395.095.82-.057 1.2-.24.517-.564.987-.957 1.39.315.177.608.395.87.65.181.195.316.431.393.69a1.388 1.388 0 0 1-.249 1.17 1.838 1.838 0 0 1-1.072.77 1.598 1.598 0 0 1-1.186 0 1.201 1.201 0 0 1-.44-.34 1.271 1.271 0 0 1-.25-.51c-.1-.33-.076-.688.068-1a4.8 4.8 0 0 1 .851-1.23l-2.306-1.34c-.088.47-.107.953-.058 1.43h-.583a4.983 4.983 0 0 1 .191-1.74l-1.206-.7.249-.56Zm1.665 1 2.536 1.47c.333-.332.608-.72.814-1.15.105-.29.105-.61 0-.9a1.095 1.095 0 0 0-.244-.464 1.03 1.03 0 0 0-.426-.286 1.836 1.836 0 0 0-1.225 0c-.325.09-.627.252-.885.477a2.39 2.39 0 0 0-.608.823l.038.03Zm3.599 4a.928.928 0 0 0 .076-.74 1.24 1.24 0 0 0-.306-.52c-.244-.215-.51-.4-.794-.55-.29.3-.544.636-.756 1a1.04 1.04 0 0 0-.077.74c.03.114.084.22.156.312a.811.811 0 0 0 .265.218c.244.096.513.096.756 0a1.14 1.14 0 0 0 .641-.47l.039.01ZM29.166 55.32l.134-7h.68l-.106 5.6 2.718-4.66h.335L35.473 54l.095-5.57h.68l-.124 7h-.584l-2.814-5.23-2.976 5.13-.584-.01ZM25.835 48c.438.436.751.99.905 1.601.154.611.142 1.255-.034 1.86a3.597 3.597 0 0 1-.909 1.63 3.178 3.178 0 0 1-1.54.88 3.56 3.56 0 0 1-1.857-.06 3.555 3.555 0 0 1-1.608-.91 3.395 3.395 0 0 1-.89-1.58 3.85 3.85 0 0 1 .031-1.894 3.726 3.726 0 0 1 .926-1.627 3.27 3.27 0 0 1 1.512-.9 3.532 3.532 0 0 1 1.847.06 3.569 3.569 0 0 1 1.617.94Zm-3.263-.35a2.527 2.527 0 0 0-1.235.72 2.925 2.925 0 0 0-.727 1.33c-.133.5-.133 1.03 0 1.53.113.487.355.93.699 1.28.36.368.805.634 1.292.77.486.13.996.13 1.483 0 .468-.12.898-.369 1.244-.72.35-.368.602-.827.727-1.33a3.004 3.004 0 0 0 0-1.54 2.84 2.84 0 0 0-.708-1.28 2.84 2.84 0 0 0-1.301-.76 2.651 2.651 0 0 0-1.474 0ZM15.327 43l.258 2.75c.165.073.324.157.479.25l1.56.94L18.677 45l.622.37-3.35 6.03-2.182-1.31a3.127 3.127 0 0 1-1.435-1.6 2.294 2.294 0 0 1 .21-1.9c.223-.438.575-.79 1.005-1 .436-.189.92-.227 1.378-.11l-.277-2.94.68.46Zm-1.09 3.16a1.694 1.694 0 0 0-.621.31c-.185.147-.34.33-.455.54a1.877 1.877 0 0 0-.16 1.4c.225.518.614.938 1.101 1.19l1.54.93 1.676-3-1.541-.93a2.294 2.294 0 0 0-1.54-.49v.05ZM9.662 38.31l.43-.45 3.302 3.55-4.785 4.88-3.187-3.44.44-.45 2.709 2.91 1.636-1.73L7.834 41l.459-.46 2.421 2.6 1.78-1.81-2.832-3.02ZM2.55 34.38 2.78 33l.45.07-.258 1.42L4.245 34l.153.44-1.292.46 1.062.94-.306.36-1.024-1-.24 1.42-.459-.09.268-1.42-1.282.48-.144-.39 1.283-.47L1.2 33.8l.316-.36 1.034.94Z"/>
  </g>
  <defs>
    <clipPath id="a">
      <path fill="#fff" transform="translate(.637)" d="M0 0h65.968v55.46H0z"/>
    </clipPath>
  </defs>
</svg>
